/* XPM */
static const char *rtzassist[] = {
/* columns rows colors chars-per-pixel */	
"32 32 236 2",
"  	c None",
". 	c #84827B",
"+ 	c #B3B0A7",
"@ 	c #AEA894",
"# 	c #A89F7F",
"$ 	c #A38A71",
"% 	c #AC898C",
"& 	c #B0AA94",
"* 	c #AFA88F",
"= 	c #ADA58A",
"- 	c #8E8550",
"; 	c #8B814E",
"> 	c #887E4D",
", 	c #837B4B",
"' 	c #818057",
") 	c #7B764A",
"! 	c #7C7447",
"~ 	c #626561",
"{ 	c #F7EED1",
"] 	c #EBE0B7",
"^ 	c #E2D29B",
"/ 	c #E3B69C",
"( 	c #F4D8CF",
"_ 	c #F6ECCC",
": 	c #F4E9C5",
"< 	c #D9C681",
"[ 	c #CEB866",
"} 	c #CAB564",
"| 	c #C6B162",
"1 	c #C3AE60",
"2 	c #C0AC5F",
"3 	c #BDA95D",
"4 	c #B9A55C",
"5 	c #B5A25A",
"6 	c #B29F58",
"7 	c #B6BCA2",
"8 	c #B5B682",
"9 	c #A99754",
"0 	c #A49352",
"a 	c #AEAB7E",
"b 	c #889AAD",
"c 	c #B0AB9C",
"d 	c #EEE3BE",
"e 	c #E4D6A2",
"f 	c #DEC887",
"g 	c #EDB9BE",
"h 	c #F8EED4",
"i 	c #EBDCAC",
"j 	c #B19E57",
"k 	c #BBD3EC",
"l 	c #B3B175",
"m 	c #A99F66",
"n 	c #E6D8A5",
"o 	c #DFCA8D",
"p 	c #E8BCAF",
"q 	c #F7E2D8",
"r 	c #F8F1D5",
"s 	c #AD9A55",
"t 	c #B1AA6C",
"u 	c #BAD1E5",
"v 	c #BACDD5",
"w 	c #B2AE72",
"x 	c #A4965B",
"y 	c #B9CFDE",
"z 	c #BBD4F0",
"A 	c #A79580",
"B 	c #E7C3AB",
"C 	c #EFC2C8",
"D 	c #F8E6DE",
"E 	c #F9F3DB",
"F 	c #F0E4BD",
"G 	c #AFA05B",
"H 	c #ADA262",
"I 	c #B8C4B4",
"J 	c #B9C9C5",
"K 	c #AEA86C",
"L 	c #A69A5D",
"M 	c #B7C8CD",
"N 	c #A8AEB3",
"O 	c #B197A3",
"P 	c #F9E5EB",
"Q 	c #FBF6E9",
"R 	c #FAF6E3",
"S 	c #B7BD9C",
"T 	c #B8C6BA",
"U 	c #B6B98D",
"V 	c #BACFE1",
"W 	c #C5DAF2",
"X 	c #F5F9FD",
"Y 	c #B6B6B5",
"Z 	c #FDFBF3",
"` 	c #FCF9EB",
" .	c #D0BD77",
"..	c #D4E4F5",
"+.	c #FFFFFF",
"@.	c #59574D",
"#.	c #000000",
"$.	c #14120D",
"%.	c #3D361A",
"&.	c #736736",
"*.	c #B3A058",
"=.	c #302A13",
"-.	c #8D9A9C",
";.	c #E1EBF6",
">.	c #CAC1A7",
",.	c #E0D39F",
"'.	c #736636",
").	c #6A5E32",
"!.	c #B2A059",
"~.	c #9B8A4B",
"{.	c #B6B886",
"].	c #ACC4DE",
"^.	c #242A31",
"/.	c #404244",
"(.	c #FDFDFD",
"_.	c #D7C78D",
":.	c #968648",
"<.	c #4C4322",
"[.	c #AE9C56",
"}.	c #9E9860",
"|.	c #B8D1ED",
"1.	c #54606D",
"2.	c #D5D5D5",
"3.	c #C5B372",
"4.	c #716435",
"5.	c #7D703C",
"6.	c #AB9A58",
"7.	c #A5B1A6",
"8.	c #8B97A5",
"9.	c #A8A8A8",
"0.	c #64592F",
"a.	c #B09D57",
"b.	c #AD9C59",
"c.	c #B3B68B",
"d.	c #A7BED7",
"e.	c #CADDF3",
"f.	c #C6CDD4",
"g.	c #707070",
"h.	c #FBFBFB",
"i.	c #C3BA9B",
"j.	c #AA9854",
"k.	c #3E371B",
"l.	c #897B43",
"m.	c #B5B47C",
"n.	c #B8D0E9",
"o.	c #B0C3D9",
"p.	c #D8E7F6",
"q.	c #E4EEF9",
"r.	c #F3F3F3",
"s.	c #4D4D4D",
"t.	c #323232",
"u.	c #EAEAEA",
"v.	c #C8BFA1",
"w.	c #897A42",
"x.	c #2D2A17",
"y.	c #B4C0B0",
"z.	c #E5E5E5",
"A.	c #FEFEFE",
"B.	c #888888",
"C.	c #C8C8C8",
"D.	c #A89653",
"E.	c #231F0C",
"F.	c #94A19D",
"G.	c #CFCFCF",
"H.	c #979797",
"I.	c #B4A160",
"J.	c #6D6134",
"K.	c #53523A",
"L.	c #C3C3C3",
"M.	c #EDEDED",
"N.	c #B4A769",
"O.	c #A1904F",
"P.	c #9D8C4D",
"Q.	c #DBDBDB",
"R.	c #ABABAB",
"S.	c #848484",
"T.	c #9C9C9C",
"U.	c #D1D1D1",
"V.	c #D5C799",
"W.	c #A08F4F",
"X.	c #9F9052",
"Y.	c #CBCBCB",
"Z.	c #454545",
"`.	c #010101",
" +	c #7C7C7C",
".+	c #EADFBA",
"++	c #B7C1A8",
"@+	c #DEEAF8",
"#+	c #0B0B0B",
"$+	c #757575",
"%+	c #A7A7A7",
"&+	c #3A3A3A",
"*+	c #E1D6AE",
"=+	c #ACA66B",
"-+	c #F1F6FC",
";+	c #E4E4E4",
">+	c #D9CEA5",
",+	c #969696",
"'+	c #2F2F2F",
")+	c #F4F4F4",
"!+	c #EDE5CA",
"~+	c #DBE8F7",
"{+	c #EBEBEB",
"]+	c #111111",
"^+	c #E5DCBD",
"/+	c #A6A067",
"(+	c #C0D7F1",
"_+	c #515151",
":+	c #B6B4AE",
"<+	c #E7E0C3",
"[+	c #97874B",
"}+	c #A69E62",
"|+	c #1F1F1F",
"1+	c #F4EFD9",
"2+	c #998D53",
"3+	c #5D5D5D",
"4+	c #918147",
"5+	c #A9A775",
"6+	c #4B4B4B",
"7+	c #BABABA",
"8+	c #BEB187",
"9+	c #8D7D45",
"0+	c #B9CACD",
"a+	c #D5CCA9",
"b+	c #8C8C8C",
"c+	c #ABA872",
"d+	c #202020",
"e+	c #EBE3C6",
"f+	c #7C786A",
"g+	c #A6A08B",
"h+	c #A49E86",
"i+	c #9C957A",
"j+	c #6C643B",
"k+	c #85908C",
"l+	c #8698AC",
"m+	c #97A3B0",
". + @ # $ % & * = = # - - ; ; ; ; ; > > , , , , , , ' ) ! ! ! ~ ",
"+ { ] ^ / ( { _ : : < [ } } | | 1 2 3 3 4 4 5 5 6 7 8 9 9 0 a b ",
"c d e f g h { _ : i [ } } | 1 1 2 3 4 4 5 5 6 j 8 k l 9 0 m k b ",
"= n o p q r { _ : < } | | 1 2 3 3 4 4 5 5 j s t u v w 0 x y z b ",
"A B C D E r { _ F } | | 1 2 3 3 4 4 5 5 5 G H I z J K L M z z N ",
"O P Q R E r { _ ^ | 1 1 2 3 4 4 5 5 l S I T J u z I U V z W X Y ",
"Y Z ` R E r _ _  .1 2 3 3 4 4 5 5 j l u z z z z z u k z ..+.+.Y ",
"Y Z ` R @.#.#.$.%.&.*.=.#.#.#.#.#.#.#.-.#.#.#.#.#.#.#.;.+.+.+.Y ",
"Y Z ` R @.#.>.,.'.#.).4 5 !.#.#.~.H {.u z z z ].^.#./.(.+.+.+.Y ",
"Y Z ` R @.#.>._.:.#.<.5 5 [.#.#.}.U y z z z |.1.#.#.2.+.+.+.+.Y ",
"Y Z ` R @.#.>.3.4.#.5.6 j 6.#.#.7.k z z z z 8.#.#.9.+.+.+.+.+.Y ",
"Y Z ` R @.#.#.#.#.0.a.b.t c.#.#.d.z z z e.f.#.#.g.h.+.+.+.+.+.Y ",
"Y Z ` R @.#.i.j.k.#.l.m.T n.#.#.o.p.q.X r.s.#.t.u.+.+.+.+.+.+.Y ",
"Y Z ` R @.#.v.6 w.#.x.y.z |.#.#.z.+.+.A.B.#.#.C.+.+.+.+.+.+.+.Y ",
"Y Z Q R @.#.>.j D.E.#.F.z |.#.#.z.+.+.G.#.#.H.+.+.+.+.+.+.+.+.Y ",
"Y Z Q R @.#.>.I.9 J.#.K.k |.#.#.z.+.+.L.#.#.#.#.#.#.#.M.+.+.+.Y ",
"Y Z Q R E { _ N.9 0 0 x I z q.+.+.+.+.+.+.+.+.+.+.+.+.+.+.+.+.Y ",
"Y Z Q R r { : s 0 O.P.L S z X +.+.+.+.+.+.+.+.Q.R.S.T.U.+.+.+.Y ",
"Y ` Q E r { V.0 W.P.X.l J e.+.+.+.+.+.+.+.Y.Z.`.`.`.`.`. ++.+.Y ",
"Y ` R E r .+0 W.P.x l ++z @++.+.+.+.+.+. +`.#+$+Y %+&+`.`.U.+.Y ",
"Y ` R E *+9 P.0 =+m.T z z -++.+.+.+.+. +`.&+;++.+.+.;+`.`.Y +.Y ",
"Y ` R >+W.x K 8 I u z z p.+.+.+.+.+.,+`.'+)++.+.+.+.+.`.`.Y +.Y ",
"Y ` !+W.L m.I k z W ~+-++.+.+.+.+.{+]+#+Q.+.+.+.+.+.Q.`.#+)++.Y ",
"Y ` ^+P./+T z z (++.+.+.+.+.+.+.+.~ `.$++.+.+.+.+.+.S.`._++.+.Y ",
":+` <+[+}+J z z p.+.+.+.+.+.+.+.{+`.`.{++.+.+.+.+.)+|+`.L.+.+.Y ",
":+` 1+[+2+I z z ~++.+.+.+.+.+.+.T.`.Z.+.+.+.+.+.+.S.`.3++.+.+.Y ",
":+` R x 4+5+k z @++.+.+.+.+.+.+.6+`.$++.+.+.+.+.7+#+]+;++.+.+.Y ",
":+` R 8+9+2+0+z ~++.+.+.+.+.+.+.Z.`.3++.+.+.+.Y #+]+Y.+.+.+.+.Y ",
":+Q R a+9+9+S z e.+.+.+.+.+.+.+.3+`.`.b+Y.%+_+`.]+Y.+.+.+.+.+.Y ",
":+Q R ^+9+9+c+k z X +.+.+.+.+.+.;+d+`.`.`.`.#+$+{++.+.+.+.+.+.Y ",
":+Q R e+9+9+/+v z q.+.+.+.+.+.+.+.{+Y S.b+7+{++.+.+.+.+.+.+.+.Y ",
"f+g+h+i+j+j+) k+l+m+Y Y Y Y Y Y Y Y Y Y Y Y Y Y Y Y Y Y Y Y Y S."};
